<svg width="567" height="567" viewBox="0 0 567 567" fill="none" xmlns="http://www.w3.org/2000/svg">
<g clip-path="url(#clip0_111_2)">
<path d="M287.35 331.99C287.35 369.09 287.32 406.2 287.37 443.3C287.38 451.91 288.21 452.64 296.73 452.63C318.16 452.63 339.6 452.63 361.03 452.61C370.06 452.6 370.72 451.52 371.92 442.62C373.58 430.29 375.93 418.04 377.98 405.76C378.12 404.95 378.26 404.14 378.37 403.32C379.92 391.09 381.36 378.84 383.06 366.62C383.74 361.75 385.29 356.99 385.92 352.12C386.72 345.92 385.65 344.41 379.44 343.36C373.27 342.32 366.99 341.9 360.76 341.23C359.78 341.12 358.78 341.17 357.79 341.08C347.56 340.16 346.44 341.04 345.71 351.96C344.93 363.63 344.49 375.33 343.71 387C343.04 397.02 342.02 407.01 341.34 417.02C341.15 419.8 340.35 421.34 337.28 421.26C333.49 421.16 329.68 421.23 325.89 421.36C322.43 421.48 321.1 419.9 321.45 416.55C323.47 397.09 325.61 377.65 327.4 358.17C328.2 349.48 328.03 340.7 328.75 332C330.47 311.2 332.48 290.42 334.33 269.64C334.8 264.39 335.23 259.13 335.48 253.86C335.64 250.41 337.07 248.7 340.65 248.84C343.78 248.96 346.93 248.8 350.06 248.91C353.35 249.02 354.65 250.68 354.28 254.09C353.49 261.43 352.95 268.79 352.34 276.14C351.73 283.36 351.14 290.59 350.57 297.81C350 304.95 351.5 306.26 358.66 306.94C366.48 307.68 374.24 309.1 382.03 310.15C383.82 310.39 385.65 310.33 387.47 310.42C391.36 310.61 392.77 308.85 393.28 304.9C395.1 290.75 397.39 276.66 399.51 262.55C399.63 261.74 399.86 260.94 399.97 260.12C401.92 245.97 403.79 231.82 405.83 217.68C406.46 213.34 404.28 211.96 400.53 211.95C393.43 211.94 386.33 212.04 379.23 212.04C351.32 212.04 323.42 212.02 295.51 212.02C287.97 212.02 287.32 212.69 287.32 220.17C287.32 257.44 287.32 294.71 287.32 331.98H287.34L287.35 331.99Z" fill="white"/>
<path d="M279.46 413.47C279.45 413.34 279.44 413.24 279.44 413.1C278.73 397.47 279.56 384.1 279.4 369.91C279.37 366.88 279.4 368.82 279.34 365.92C279.34 365.62 279.34 365.35 279.33 365.1C279.29 362.07 276.42 359.87 273.48 360.62C265.98 362.53 260.52 363.83 251.58 366.38C250.17 366.91 242.31 367.79 242.72 372.32L241.76 413.44C241.29 417.7 236.55 415.76 233.85 415.2C227.25 413.85 228.96 413.25 226.93 404.47C226.92 404.42 226.91 404.36 226.9 404.3C224.24 387.63 224.51 371.69 222.07 354.73C222.07 354.67 222.05 354.6 222.03 354.54C220.54 348.35 223.95 348.05 230.29 346.52C245.67 342.81 261 338.84 276.37 335.07C280.67 334.02 279.8 331.48 279.84 327.6L279.46 305.53C279.46 305.53 279.46 305.51 279.46 305.5C279.43 304.33 278.3 303.48 277.13 303.62L226.59 309.54C226.42 309.57 224.98 309.84 224.74 309.87C224.33 309.96 223.86 310.04 223.46 310.11C220.83 310.57 218.23 308.91 217.47 306.35C217.29 305.76 217.18 305.14 217.12 304.52C215.72 289.56 214.49 274.59 212.88 259.66C212.06 252.02 211.03 251.33 214.43 248.93C215.83 247.94 217.58 247.89 219.1 247.75C223.49 247.35 227.68 249.67 229.82 253.52L229.91 253.69C232.11 256.52 232.38 258.86 232.97 261.75L237.29 282.74C237.96 286 240.87 288.31 244.2 288.22C253.43 287.99 262.59 287.78 271.82 286.95C277.24 286.46 279.84 284.59 279.45 279.08C279.24 276.06 279.53 272.54 279.45 269.51C279.07 254.78 279.96 240.82 279.09 226.06C279.09 226 279.09 225.95 279.09 225.89L279.4 215.37C279.81 213.61 278.23 212.16 276.42 212.16C248.33 212.16 199.59 211.13 166.52 213.5C160.66 213.92 159.72 217.78 160.18 222.98C159.8 224.11 159.86 225.59 160.22 227.59C163.91 247.87 167.56 268.19 171.11 288.5C171.15 288.73 171.19 288.93 171.23 289.14C171.25 289.26 171.27 289.39 171.29 289.51C171.26 289.51 171.22 289.52 171.19 289.53C173.99 306.06 176.75 322.59 179.64 339.1C182.37 355.67 185.24 372.22 188.07 388.77C188.1 388.77 188.14 388.76 188.17 388.75C191.55 408.52 194.92 428.29 198.3 448.06C198.33 448.19 198.36 448.33 198.39 448.46C200.03 454.65 200.53 453.29 208.76 453.21C240.14 452.91 245.23 453.74 275.14 452.09C277.54 451.96 279.43 449.98 279.43 447.57C279.43 446.09 279.43 443.94 279.46 440.73C279.46 440.63 279.46 440.54 279.44 440.45C278.95 436.33 279.88 417.58 279.49 413.41L279.46 413.47Z" fill="white"/>
<path d="M280.26 99.1699C297.23 79.3099 325.55 77.5599 342.93 99.3399C345.94 103.12 348.38 107.45 350.48 111.82C352.78 116.61 356.88 118.08 361.42 119.24C370.03 121.43 378.38 124.28 381.77 133.37C384.75 138.95 382.49 145.96 382.32 151.9C382.28 153.38 383.43 155.26 384.61 156.33C389.82 161.05 393.55 166.3 393.23 173.78C393.18 174.85 394.66 176.63 395.78 177C404.07 179.68 410.93 188.85 410.99 197.48C411.02 201.55 409.45 203.65 405.18 203.62C398.08 203.57 390.98 203.69 383.88 203.69C350.35 203.69 316.83 203.69 283.3 203.69V203.73C243 203.73 202.71 203.73 162.41 203.73C157.2 203.73 155.61 201.54 155.97 196.27C156.72 185.62 165.17 179.26 174.12 174.37C175.38 173.68 174.35 170.78 173.98 169.73C170.46 159.79 173.32 148.63 178.89 141.2C185.18 132.81 197.11 135.08 207.71 136.94C211.99 137.69 211.24 133.17 211.2 129.04C211.11 120.3 222.01 108.46 232.25 108.32C238.11 108.24 243.21 109.38 247.56 111.84C254.57 115.8 263.39 114.5 269.34 109.08L280.24 99.1599L280.26 99.1699Z" fill="white"/>
</g>
<defs>
<clipPath id="clip0_111_2">
<rect width="566.93" height="566.93" fill="white"/>
</clipPath>
</defs>
</svg>
